<svg width="13" height="9" viewBox="0 0 13 9" fill="none" xmlns="http://www.w3.org/2000/svg">
<path d="M9.83333 3.5V1.16667C9.83333 0.989856 9.7631 0.820287 9.63807 0.695262C9.51305 0.570238 9.34348 0.5 9.16667 0.5H1.16667C0.989856 0.5 0.820286 0.570238 0.695262 0.695262C0.570238 0.820287 0.5 0.989856 0.5 1.16667V7.83333C0.5 8.01014 0.570238 8.17971 0.695262 8.30474C0.820286 8.42976 0.989856 8.5 1.16667 8.5H9.16667C9.34348 8.5 9.51305 8.42976 9.63807 8.30474C9.7631 8.17971 9.83333 8.01014 9.83333 7.83333V5.5L12.5 8.16667V0.833333L9.83333 3.5Z" fill="#171C3B"/>
</svg>
