<svg width="35" height="35" viewBox="0 0 40 41" fill="none" xmlns="http://www.w3.org/2000/svg">
<path d="M20 0.123169C17.3736 0.123169 14.7728 0.640484 12.3463 1.64558C9.91982 2.65067 7.71504 4.12386 5.85786 5.98103C2.10714 9.73176 0 14.8188 0 20.1232C0 25.4275 2.10714 30.5146 5.85786 34.2653C7.71504 36.1225 9.91982 37.5957 12.3463 38.6008C14.7728 39.6059 17.3736 40.1232 20 40.1232C25.3043 40.1232 30.3914 38.016 34.1421 34.2653C37.8929 30.5146 40 25.4275 40 20.1232C40 17.4967 39.4827 14.896 38.4776 12.4695C37.4725 10.043 35.9993 7.83821 34.1421 5.98103C32.285 4.12386 30.0802 2.65067 27.6537 1.64558C25.2272 0.640484 22.6264 0.123169 20 0.123169ZM30 22.1232H10V18.1232H30V22.1232Z" fill="#FF6464"/>
</svg>
