<svg width="12" height="14" viewBox="0 0 13 14" fill="none" xmlns="http://www.w3.org/2000/svg">
<path d="M11.1667 12.1667H1.83333V4.83341H11.1667M9.16667 0.166748V1.50008H3.83333V0.166748H2.5V1.50008H1.83333C1.09333 1.50008 0.5 2.09341 0.5 2.83341V12.1667C0.5 12.5204 0.640476 12.8595 0.890524 13.1096C1.14057 13.3596 1.47971 13.5001 1.83333 13.5001H11.1667C11.5203 13.5001 11.8594 13.3596 12.1095 13.1096C12.3595 12.8595 12.5 12.5204 12.5 12.1667V2.83341C12.5 2.47979 12.3595 2.14065 12.1095 1.89061C11.8594 1.64056 11.5203 1.50008 11.1667 1.50008H10.5V0.166748" fill="#161C3D"/>
</svg>
