<svg width="14" height="15" viewBox="0 0 14 15" fill="none" xmlns="http://www.w3.org/2000/svg">
<path d="M10.3333 4.16668H13.6666V10.8333H10.3333V12.1667C10.3333 12.3435 10.4035 12.5131 10.5285 12.6381C10.6535 12.7631 10.8231 12.8333 10.9999 12.8333H12.3333V14.1667H10.6666C10.2999 14.1667 9.66659 13.8667 9.66659 13.5C9.66659 13.8667 9.03325 14.1667 8.66659 14.1667H6.99992V12.8333H8.33325C8.51006 12.8333 8.67963 12.7631 8.80466 12.6381C8.92968 12.5131 8.99992 12.3435 8.99992 12.1667V2.83334C8.99992 2.65653 8.92968 2.48696 8.80466 2.36194C8.67963 2.23691 8.51006 2.16668 8.33325 2.16668H6.99992V0.833344H8.66659C9.03325 0.833344 9.66659 1.13334 9.66659 1.50001C9.66659 1.13334 10.2999 0.833344 10.6666 0.833344H12.3333V2.16668H10.9999C10.8231 2.16668 10.6535 2.23691 10.5285 2.36194C10.4035 2.48696 10.3333 2.65653 10.3333 2.83334V4.16668ZM0.333252 4.16668H7.66659V5.50001H1.66659V9.50001H7.66659V10.8333H0.333252V4.16668ZM12.3333 9.50001V5.50001H10.3333V9.50001H12.3333ZM4.66659 7.50001C4.66659 7.23479 4.56123 6.98044 4.37369 6.7929C4.18616 6.60537 3.9318 6.50001 3.66659 6.50001C3.40137 6.50001 3.14701 6.60537 2.95948 6.7929C2.77194 6.98044 2.66659 7.23479 2.66659 7.50001C2.66659 7.76523 2.77194 8.01958 2.95948 8.20712C3.14701 8.39465 3.40137 8.50001 3.66659 8.50001C3.9318 8.50001 4.18616 8.39465 4.37369 8.20712C4.56123 8.01958 4.66659 7.76523 4.66659 7.50001ZM7.66659 6.76001C7.25992 6.38668 6.62659 6.42001 6.25325 6.83334C5.87992 7.23334 5.91325 7.86668 6.33325 8.24001C6.69992 8.58668 7.28659 8.58668 7.66659 8.24001V6.76001Z" fill="black"/>
</svg>
