<svg width="13" height="13" viewBox="0 0 13 13" fill="none" xmlns="http://www.w3.org/2000/svg">
<path d="M0.5 1.83333C0.5 1.47971 0.640476 1.14057 0.890524 0.890524C1.14057 0.640476 1.47971 0.5 1.83333 0.5H11.1667C11.5203 0.5 11.8594 0.640476 12.1095 0.890524C12.3595 1.14057 12.5 1.47971 12.5 1.83333V11.1667C12.5 11.5203 12.3595 11.8594 12.1095 12.1095C11.8594 12.3595 11.5203 12.5 11.1667 12.5H1.83333C1.47971 12.5 1.14057 12.3595 0.890524 12.1095C0.640476 11.8594 0.5 11.5203 0.5 11.1667V1.83333ZM5.83333 2.5V8.16667L3.5 5.83333L2.55333 6.78L6.5 10.7267L10.4467 6.78L9.5 5.83333L7.16667 8.16667V2.5H5.83333Z" fill="#171C3B"/>
</svg>
