<svg width="165" height="41" viewBox="0 0 165 41" fill="none" xmlns="http://www.w3.org/2000/svg">
<path d="M31 19.771C31 19.6171 30.9972 19.4631 30.9915 19.3092V0.5H1V25.3177V25.6088C1 33.8198 7.72773 40.5 15.9972 40.5C24.168 40.5 30.8337 33.9765 30.9887 25.9026H30.9915V25.6116V25.3205V20.0648H31V19.771ZM28.0519 19.4799C27.894 13.0152 22.553 7.80148 16.0028 7.80148C9.45265 7.80148 4.11161 13.0152 3.95378 19.4799H1.60034C1.75536 11.7251 8.15896 5.46467 16.0056 5.46467C23.8016 5.46467 30.1685 11.6439 30.4053 19.3288V19.4799H28.0519ZM25.1178 19.4799H25.1122C24.9572 14.6244 20.9324 10.7204 16.0028 10.7204C11.0761 10.7204 7.0513 14.6244 6.89346 19.4799H6.88501H4.5372C4.69504 13.3371 9.77678 8.38638 16 8.38638C22.226 8.38638 27.3078 13.3371 27.4628 19.4799H25.1178ZM30.394 26.1181C30.3912 26.1797 30.3912 26.2441 30.3856 26.3056C30.3828 26.3644 30.3799 26.426 30.3743 26.4847C30.3715 26.5463 30.3658 26.6079 30.363 26.6695C30.3574 26.7282 30.3517 26.7898 30.3489 26.8486C30.3433 26.9073 30.3377 26.9689 30.332 27.0277C30.3264 27.0892 30.3179 27.148 30.3123 27.2096C30.3067 27.2683 30.2982 27.3271 30.2926 27.3831C30.2841 27.4447 30.2756 27.5062 30.2672 27.565C30.2587 27.621 30.2503 27.6797 30.2418 27.7357C30.2334 27.7973 30.2221 27.8588 30.2136 27.9204C30.2052 27.9764 30.1967 28.0324 30.1855 28.0883C30.1742 28.1499 30.1629 28.2115 30.1516 28.273C30.1404 28.329 30.1319 28.3822 30.1206 28.4382C30.1094 28.4997 30.0953 28.5613 30.0812 28.6229C30.0699 28.676 30.0586 28.7292 30.0473 28.7824C30.0333 28.8439 30.0192 28.9055 30.0023 28.9671C29.9882 29.0203 29.9769 29.0706 29.9628 29.1238C29.9459 29.1854 29.929 29.2469 29.9149 29.3085C29.9008 29.3589 29.8867 29.4121 29.8726 29.4624C29.8557 29.524 29.836 29.5856 29.8191 29.6471C29.805 29.6975 29.788 29.7479 29.774 29.7983C29.7542 29.8598 29.7345 29.9214 29.7148 29.983C29.6979 30.0333 29.6838 30.0809 29.6669 30.1285C29.6471 30.1901 29.6246 30.2516 29.602 30.3132C29.5851 30.3608 29.5682 30.4083 29.5513 30.4587C29.5287 30.5203 29.5062 30.5819 29.4837 30.6406C29.4667 30.6882 29.447 30.7358 29.4301 30.7834C29.4076 30.8449 29.3822 30.9065 29.3568 30.9653C29.3371 31.0128 29.3202 31.0576 29.3005 31.1052C29.2751 31.1668 29.2497 31.2255 29.2215 31.2871C29.2018 31.3319 29.1821 31.3767 29.1623 31.4242C29.1342 31.483 29.1088 31.5446 29.0806 31.6033C29.0609 31.6481 29.0383 31.6929 29.0186 31.7377C28.9904 31.7964 28.9622 31.8552 28.9312 31.9168C28.9087 31.9616 28.8861 32.0035 28.8664 32.0483C28.8354 32.1071 28.8072 32.1658 28.7762 32.2218C28.7537 32.2666 28.7311 32.3086 28.7058 32.3534C28.6776 32.4065 28.6466 32.4597 28.6184 32.5157L17.0964 25.911H30.4025C30.4025 25.925 30.4025 25.9362 30.4025 25.9502C30.3997 26.0006 30.3968 26.0594 30.394 26.1181ZM28.1843 33.2349C28.1477 33.2909 28.1139 33.3468 28.0772 33.4C28.0519 33.4392 28.0237 33.4812 27.9983 33.5204C27.9617 33.5763 27.925 33.6295 27.8856 33.6855C27.8574 33.7247 27.8292 33.7638 27.8038 33.803C27.7644 33.8562 27.7277 33.9094 27.6883 33.9653C27.6601 34.0045 27.6319 34.0437 27.6037 34.0829C27.5643 34.136 27.5248 34.1892 27.4853 34.2424C27.4572 34.2816 27.4262 34.318 27.398 34.3571C27.3585 34.4103 27.3162 34.4607 27.2768 34.5111C27.2458 34.5474 27.2148 34.5866 27.1866 34.623C27.1443 34.6734 27.102 34.7237 27.0598 34.7741C27.0287 34.8105 26.9977 34.8469 26.9667 34.8861C26.9245 34.9364 26.8822 34.9868 26.8371 35.0344C26.8061 35.0708 26.7723 35.1071 26.7413 35.1435C26.6962 35.1911 26.6539 35.2415 26.6088 35.2891C26.575 35.3254 26.544 35.359 26.5101 35.3954C26.4651 35.443 26.42 35.4906 26.3749 35.5381C26.341 35.5717 26.3072 35.6081 26.2734 35.6417C26.2283 35.6893 26.1804 35.734 26.1353 35.7816C26.1015 35.8152 26.0648 35.8488 26.031 35.8824C25.9831 35.9271 25.938 35.9719 25.8901 36.0167C25.8534 36.0503 25.8196 36.0839 25.783 36.1146C25.7351 36.1594 25.6871 36.2014 25.6392 36.2462C25.6026 36.2798 25.566 36.3105 25.5293 36.3441C25.4814 36.3861 25.4307 36.4309 25.3828 36.4729C25.3461 36.5064 25.3067 36.5372 25.2672 36.568C25.2165 36.61 25.1685 36.6492 25.1178 36.6911C25.0784 36.7219 25.0389 36.7527 25.0023 36.7835C24.9515 36.8227 24.9008 36.8647 24.8501 36.9038C24.8106 36.9346 24.7711 36.9654 24.7317 36.9934C24.6809 37.0326 24.6302 37.0717 24.5767 37.1081C24.5372 37.1389 24.4949 37.1669 24.4555 37.1977C24.4047 37.2341 24.3512 37.2732 24.2976 37.3096C24.2554 37.3376 24.2131 37.3684 24.1708 37.3964C24.1173 37.4328 24.0665 37.4691 24.013 37.5027C23.9707 37.5307 23.9284 37.5587 23.8861 37.5867C23.8326 37.6203 23.779 37.6567 23.7255 37.6902C23.6832 37.7182 23.6381 37.7434 23.5958 37.7714C23.5536 37.7966 23.5113 37.8246 23.469 37.8498L16.8174 26.4092L28.3393 33.0138C28.3196 33.0474 28.2999 33.0782 28.2802 33.1118C28.2351 33.1509 28.2097 33.1929 28.1843 33.2349ZM22.677 38.2835C22.6206 38.3115 22.5671 38.3423 22.5107 38.3703C22.4628 38.3955 22.4149 38.4179 22.367 38.4403C22.3106 38.4682 22.2542 38.4962 22.1979 38.5214C22.1499 38.5438 22.102 38.5662 22.0513 38.5886C21.9949 38.6138 21.9386 38.6417 21.8822 38.6669C21.8315 38.6893 21.7835 38.7089 21.7328 38.7313C21.6764 38.7565 21.6201 38.7817 21.5637 38.8041C21.513 38.8265 21.4622 38.846 21.4115 38.8656C21.3551 38.888 21.2988 38.9132 21.2396 38.9356C21.1888 38.9552 21.1353 38.9748 21.0846 38.9944C21.0282 39.0168 20.969 39.0363 20.9126 39.0587C20.8591 39.0783 20.8083 39.0951 20.7548 39.1147C20.6984 39.1343 20.6392 39.1539 20.5829 39.1735C20.5293 39.1903 20.4758 39.2071 20.4222 39.2266C20.3658 39.2462 20.3067 39.263 20.2503 39.2826C20.1967 39.2994 20.1404 39.3162 20.084 39.3302C20.0276 39.347 19.9684 39.3638 19.9121 39.3806C19.8557 39.3974 19.7993 39.4114 19.743 39.4253C19.6866 39.4421 19.6274 39.4561 19.5682 39.4729C19.5118 39.4869 19.4526 39.5009 19.3963 39.5149C19.3399 39.5289 19.2807 39.5429 19.2244 39.5569C19.1652 39.5709 19.106 39.5821 19.0468 39.5961C18.9904 39.6073 18.9312 39.6213 18.8749 39.6324C18.8157 39.6436 18.7565 39.6548 18.6945 39.666C18.6381 39.6772 18.5817 39.6884 18.5225 39.6996C18.4605 39.7108 18.4014 39.7192 18.3393 39.7304C18.283 39.7388 18.2266 39.75 18.1674 39.7584C18.1054 39.7668 18.0434 39.7752 17.9786 39.7836C17.9222 39.792 17.8658 39.8004 17.8095 39.806C17.7446 39.8144 17.6798 39.8199 17.615 39.8283C17.5614 39.8339 17.5051 39.8423 17.4515 39.8479C17.3839 39.8535 17.3134 39.8591 17.2458 39.8675C17.195 39.8731 17.1415 39.8759 17.0908 39.8815C17.0175 39.8871 16.947 39.8899 16.8737 39.8955C16.8258 39.8983 16.7751 39.9011 16.7272 39.9039C16.6511 39.9067 16.5722 39.9095 16.4961 39.9123C16.451 39.9151 16.4059 39.9151 16.3608 39.9179C16.3354 39.9179 16.31 39.9179 16.2875 39.9179V26.7058L22.9391 38.1464C22.8968 38.1688 22.8546 38.194 22.8123 38.2164C22.77 38.236 22.7221 38.2583 22.677 38.2835ZM15.4927 39.9067C15.4166 39.9039 15.3377 39.9011 15.2616 39.8983C15.2136 39.8955 15.1629 39.8927 15.115 39.8899C15.0417 39.8843 14.9684 39.8815 14.898 39.8759C14.8444 39.8731 14.7937 39.8675 14.743 39.8619C14.6753 39.8563 14.6048 39.8507 14.5372 39.8423C14.4808 39.8367 14.4273 39.8311 14.3737 39.8227C14.3089 39.8144 14.2441 39.8088 14.1793 39.8004C14.1229 39.7948 14.0665 39.7836 14.0101 39.778C13.9481 39.7696 13.8833 39.7612 13.8213 39.7528C13.7649 39.7444 13.7086 39.7332 13.6494 39.7248C13.5874 39.7136 13.5282 39.7052 13.4662 39.694C13.4098 39.6828 13.3534 39.6716 13.2943 39.6604C13.2351 39.6492 13.1731 39.638 13.1139 39.6268C13.0575 39.6157 12.9983 39.6017 12.9419 39.5905C12.8828 39.5793 12.8236 39.5653 12.7644 39.5513C12.708 39.5373 12.6488 39.5233 12.5924 39.5093C12.5361 39.4953 12.4769 39.4813 12.4205 39.4673C12.3613 39.4533 12.305 39.4365 12.2458 39.4198C12.1894 39.4058 12.133 39.389 12.0767 39.375C12.0175 39.3582 11.9611 39.3414 11.9047 39.3246C11.8484 39.3078 11.7948 39.2938 11.7384 39.277C11.6793 39.2602 11.6229 39.2406 11.5665 39.2211C11.513 39.2043 11.4594 39.1875 11.4059 39.1679C11.3467 39.1483 11.2903 39.1287 11.2339 39.1091C11.1804 39.0895 11.1297 39.0727 11.0761 39.0531C11.0197 39.0335 10.9605 39.0112 10.9042 38.9888C10.8534 38.9692 10.7999 38.9496 10.7492 38.93C10.6928 38.9076 10.6364 38.8852 10.5772 38.86C10.5265 38.8404 10.4758 38.8181 10.425 38.7985C10.3687 38.7761 10.3123 38.7509 10.2559 38.7257C10.2052 38.7033 10.1544 38.6837 10.1065 38.6613C10.0502 38.6362 9.9938 38.611 9.93743 38.583C9.88951 38.5606 9.8416 38.5382 9.79087 38.5158C9.7345 38.4878 9.67813 38.4626 9.62176 38.4347C9.57384 38.4123 9.52593 38.3871 9.47802 38.3647C9.42165 38.3367 9.36809 38.3087 9.31172 38.2779C9.26381 38.2527 9.21871 38.2304 9.1708 38.2052C9.12852 38.1828 9.08625 38.1604 9.04397 38.1352L15.6956 26.6946V39.9067C15.6702 39.9067 15.6449 39.9067 15.6223 39.9067C15.5829 39.9123 15.5378 39.9095 15.4927 39.9067ZM8.28298 37.6902C8.22943 37.6567 8.17587 37.6203 8.12232 37.5867C8.08005 37.5587 8.03777 37.5307 7.99549 37.5027C7.94194 37.4663 7.89121 37.4328 7.83766 37.3964C7.79538 37.3684 7.7531 37.3404 7.71082 37.3096C7.65727 37.2732 7.60654 37.2341 7.55299 37.1977C7.51353 37.1697 7.47125 37.1389 7.43179 37.1081C7.38106 37.069 7.32751 37.0298 7.27678 36.9934C7.23732 36.9626 7.19786 36.9346 7.1584 36.9038C7.10767 36.8647 7.05693 36.8255 7.0062 36.7835C6.96674 36.7527 6.92728 36.7219 6.89064 36.6911C6.83991 36.6492 6.792 36.61 6.74126 36.568C6.7018 36.5372 6.66516 36.5036 6.6257 36.4729C6.57497 36.4309 6.52706 36.3889 6.47914 36.3441C6.4425 36.3105 6.40586 36.2798 6.36922 36.2462C6.32131 36.2014 6.27339 36.1594 6.22548 36.1146C6.18884 36.0811 6.15502 36.0475 6.11838 36.0167C6.07046 35.9719 6.02255 35.9271 5.97745 35.8824C5.94363 35.8488 5.90699 35.8152 5.87317 35.7816C5.82525 35.7368 5.78016 35.6893 5.73506 35.6417C5.70124 35.6081 5.66742 35.5717 5.6336 35.5381C5.5885 35.4906 5.54341 35.443 5.49831 35.3954C5.46449 35.359 5.43067 35.3254 5.39966 35.2891C5.35457 35.2415 5.31229 35.1939 5.26719 35.1435C5.23337 35.1071 5.20237 35.0708 5.17136 35.0344C5.12909 34.984 5.08399 34.9364 5.04171 34.8861C5.01071 34.8497 4.97971 34.8133 4.9487 34.7741C4.90643 34.7237 4.86415 34.6734 4.82187 34.623C4.79087 34.5866 4.75986 34.5474 4.73168 34.5111C4.6894 34.4607 4.64994 34.4075 4.60767 34.3571C4.57948 34.318 4.54848 34.2816 4.52029 34.2424C4.48083 34.1892 4.44138 34.136 4.40192 34.0829C4.37373 34.0437 4.34555 34.0045 4.31736 33.9653C4.2779 33.9122 4.24126 33.859 4.2018 33.803C4.17362 33.7638 4.14543 33.7247 4.12007 33.6855C4.08343 33.6323 4.04397 33.5763 4.00733 33.5204C3.97914 33.4812 3.95378 33.4392 3.92841 33.4C3.89177 33.344 3.85513 33.2881 3.82131 33.2349C3.79594 33.1929 3.77058 33.1537 3.74521 33.1118C3.72548 33.0782 3.70575 33.0474 3.68602 33.0138L15.208 26.4092L8.55637 37.8498C8.51409 37.8246 8.47182 37.7994 8.42954 37.7714C8.37035 37.7434 8.32525 37.7154 8.28298 37.6902ZM3.21815 32.2162C3.18715 32.1575 3.15614 32.0987 3.12796 32.0427C3.10541 31.9979 3.08286 31.956 3.06313 31.9112C3.03495 31.8524 3.00395 31.7936 2.97576 31.7321C2.95321 31.6873 2.93348 31.6425 2.91375 31.5977C2.88557 31.539 2.85738 31.4774 2.83202 31.4186C2.81229 31.3739 2.79256 31.3263 2.77283 31.2815C2.74746 31.2227 2.7221 31.1612 2.69673 31.1024C2.677 31.0548 2.65727 31.01 2.64036 30.9625C2.61499 30.9009 2.59245 30.8421 2.56708 30.7806C2.54735 30.733 2.53044 30.6854 2.51353 30.6378C2.49098 30.5763 2.46843 30.5147 2.44589 30.4559C2.42897 30.4083 2.41206 30.3608 2.39515 30.3104C2.3726 30.2488 2.35287 30.1873 2.33033 30.1257C2.31342 30.0781 2.29932 30.0277 2.28241 29.9802C2.26268 29.9186 2.24295 29.857 2.22322 29.7955C2.20913 29.7451 2.19222 29.6947 2.17813 29.6443C2.16122 29.5828 2.14149 29.5212 2.12458 29.4596C2.11048 29.4093 2.09639 29.3589 2.0823 29.3057C2.06539 29.2441 2.04848 29.1826 2.03439 29.121C2.02029 29.0678 2.00902 29.0175 1.99493 28.9643C1.98083 28.9027 1.96392 28.8411 1.94983 28.7796C1.93856 28.7264 1.92728 28.6732 1.91601 28.6201C1.90192 28.5585 1.89064 28.4969 1.87655 28.4354C1.86528 28.3822 1.854 28.3262 1.84555 28.2702C1.83427 28.2087 1.823 28.1471 1.81173 28.0855C1.80327 28.0296 1.792 27.9736 1.78354 27.9176C1.77227 27.856 1.76381 27.7945 1.75536 27.7329C1.7469 27.6769 1.73844 27.6182 1.72999 27.5622C1.72153 27.5006 1.71308 27.4391 1.70462 27.3803C1.69617 27.3215 1.69053 27.2627 1.68489 27.2068C1.67926 27.1452 1.6708 27.0864 1.66516 27.0249C1.65953 26.9661 1.65389 26.9045 1.64825 26.8458C1.64262 26.787 1.63698 26.7254 1.63416 26.6667C1.62852 26.6051 1.62571 26.5435 1.62289 26.4819C1.62007 26.4232 1.61443 26.3644 1.61161 26.3028C1.60879 26.2413 1.60597 26.1769 1.60316 26.1153C1.60034 26.0566 1.59752 25.9978 1.59752 25.939C1.59752 25.925 1.59752 25.9138 1.59752 25.8998H14.9036L3.38162 32.5045C3.35062 32.4513 3.32244 32.3981 3.29425 32.3422C3.26607 32.303 3.2407 32.2582 3.21815 32.2162ZM6.88782 20.062V25.3177H1.5947V20.062H3.94814H6.88782ZM9.83033 20.062H12.77V25.3177H7.47689V20.062H9.83033ZM24.5231 20.062V25.3177H19.2384V20.062H22.1781H24.5231ZM18.6494 20.062V25.3177H13.3563V20.062H18.6494ZM13.3732 19.4799C13.5197 18.1674 14.6443 17.1431 16.0028 17.1431C17.3613 17.1431 18.4859 18.1674 18.6325 19.4799H13.3732ZM19.2384 19.4799H19.2244C19.075 17.8456 17.6883 16.561 16.0028 16.561C14.3174 16.561 12.9307 17.8456 12.7813 19.4799H12.7672H10.4222C10.5772 16.5554 13.0209 14.2242 16.0028 14.2242C18.9848 14.2242 21.4284 16.5554 21.5834 19.4799H19.2384ZM24.5231 19.4799H22.1697C22.0147 16.2336 19.3089 13.6393 16.0028 13.6393C12.6967 13.6393 9.98816 16.2336 9.83596 19.4799H7.48253C7.63754 14.9462 11.4002 11.3053 16.0056 11.3053C20.6082 11.3053 24.3709 14.9462 24.5231 19.4799ZM30.4053 1.0849V15.6123C28.5874 9.41905 22.8207 4.87977 16.0056 4.87977C9.1708 4.87977 3.39008 9.44424 1.58906 15.6627V1.0821H30.4053V1.0849ZM30.4053 25.3177H25.1178V20.062H28.0575H30.4025V25.3177H30.4053Z" fill="white" stroke="white" stroke-width="0.3"/>
<path d="M44.3871 17.1788C43.0343 17.1788 41.9801 16.9123 41.2205 16.3756C40.461 15.8388 40.0831 15.1707 40.0831 14.3711C40.0831 13.4215 40.5744 12.9448 41.5606 12.9448C41.5757 14.2773 41.8251 15.2795 42.3088 15.9589C42.7925 16.6383 43.5369 16.9761 44.5345 16.9761C45.4074 16.9761 46.1178 16.7246 46.6582 16.2217C47.1985 15.7187 47.4668 14.968 47.4668 13.962C47.4668 13.3502 47.3535 12.8547 47.1267 12.4756C46.9 12.0964 46.5373 11.7511 46.0385 11.4471C45.5397 11.143 44.8859 10.8052 44.0811 10.4373C43.6578 10.2346 43.2233 10.0132 42.7812 9.77669C42.3353 9.54021 41.9272 9.25494 41.5531 8.92087C41.1752 8.58679 40.8767 8.18516 40.6499 7.70845C40.4232 7.23174 40.3099 6.65744 40.3099 5.97804C40.3099 4.75811 40.7028 3.82722 41.4888 3.1891C42.2748 2.55099 43.3253 2.23193 44.6365 2.23193C45.4301 2.23193 46.1254 2.34079 46.7262 2.5585C47.327 2.77621 47.7956 3.06148 48.1319 3.41432C48.4682 3.76716 48.6345 4.15378 48.6345 4.57419C48.6345 4.96832 48.4833 5.27611 48.1848 5.50133C47.8825 5.72654 47.4933 5.83915 47.0172 5.83915C47.0172 4.71307 46.832 3.86475 46.4655 3.29421C46.0951 2.72366 45.483 2.43838 44.6214 2.43838C43.8279 2.43838 43.1968 2.67486 42.7245 3.15157C42.2521 3.62828 42.0179 4.32645 42.0179 5.24984C42.0179 5.91422 42.1426 6.45099 42.3882 6.86013C42.6338 7.26928 43.0041 7.61836 43.4954 7.90739C43.9866 8.20017 44.6176 8.52298 45.381 8.87582C46.0649 9.18737 46.696 9.51393 47.2779 9.85176C47.8598 10.1896 48.3284 10.6213 48.6836 11.143C49.0388 11.6648 49.2164 12.3404 49.2164 13.17C49.2164 14.4049 48.7969 15.3846 47.9543 16.1015C47.1041 16.8222 45.9175 17.1788 44.3871 17.1788Z" fill="white" stroke="white" stroke-width="0.3"/>
<path d="M54.6577 17.1788C53.6035 17.1788 52.7797 16.9123 52.1789 16.3755C51.5781 15.8387 51.2758 15.103 51.2758 14.1646C51.2758 13.1211 51.6612 12.3404 52.4358 11.8224C53.2067 11.3081 54.3781 11.0229 55.9501 10.9665L57.6505 10.9065V9.38254C57.6505 8.62056 57.609 7.99746 57.5258 7.50949C57.4427 7.02153 57.2651 6.65743 56.993 6.42095C56.7209 6.18447 56.3015 6.06435 55.7422 6.06435C54.9487 6.06435 54.4424 6.30834 54.2156 6.79631C53.9889 7.28428 53.8755 8.05377 53.8755 9.09727C53.3012 9.09727 52.8666 9.00343 52.5757 8.812C52.2809 8.62056 52.1335 8.30901 52.1335 7.8736C52.1335 7.38563 52.2998 6.99525 52.6361 6.70247C52.9724 6.40969 53.4145 6.19573 53.97 6.0606C54.5217 5.92547 55.1414 5.85791 55.8254 5.85791C57.0837 5.85791 58.0208 6.12441 58.6443 6.65367C59.2678 7.18293 59.5777 8.0913 59.5777 9.38254V15.4709C59.5777 15.9588 59.6722 16.3004 59.8649 16.4881C60.0576 16.6795 60.3826 16.7734 60.8474 16.7734H60.9078V16.9761H57.813V14.8365H57.7752C57.5561 15.6511 57.1706 16.2441 56.6151 16.6195C56.0634 16.9948 55.4097 17.1788 54.6577 17.1788ZM55.0696 16.8935C55.576 16.8935 56.0219 16.7659 56.4111 16.5069C56.8003 16.2479 57.1064 15.9025 57.3218 15.4671C57.5409 15.0317 57.6505 14.5663 57.6505 14.0633V11.1317L56.3393 11.1918C55.1792 11.2443 54.3743 11.5108 53.9322 11.9875C53.4863 12.4642 53.2672 13.2638 53.2672 14.3898C53.2634 16.0602 53.8642 16.8935 55.0696 16.8935Z" fill="white" stroke="white" stroke-width="0.3"/>
<path d="M62.0594 16.9761V16.7734H62.3277C62.9285 16.7734 63.3593 16.6496 63.6201 16.4056C63.8808 16.1616 64.0093 15.76 64.0093 15.2044V3.29047C64.0093 2.71992 63.8808 2.31453 63.6201 2.0668C63.3593 1.82281 62.9285 1.69894 62.3277 1.69894H62.0594V1.5H65.9327V15.1031C65.9327 15.6999 66.0611 16.1278 66.3219 16.3868C66.5826 16.6458 67.0135 16.7734 67.6143 16.7734H67.8825V16.9761H62.0594Z" fill="white" stroke="white" stroke-width="0.3"/>
<path d="M68.6202 16.9761V16.7734H68.8885C69.4894 16.7734 69.9201 16.6495 70.1809 16.4056C70.4416 16.1616 70.5701 15.7599 70.5701 15.2044V7.8548C70.5701 7.28426 70.4416 6.87886 70.1809 6.63113C69.9201 6.38714 69.4894 6.26327 68.8885 6.26327H68.8281V6.06058H72.4973V15.1031C72.4973 15.6999 72.6257 16.1278 72.8865 16.3868C73.1472 16.6458 73.578 16.7734 74.1788 16.7734H74.4471V16.9761H68.6202ZM71.4279 4.10495C71.1671 4.10495 70.9517 4.01862 70.7817 3.8497C70.6116 3.68079 70.5247 3.38426 70.5247 2.96385C70.5247 2.52843 70.6116 2.2319 70.7817 2.06674C70.9517 1.90533 71.1671 1.82275 71.4279 1.82275C71.6735 1.82275 71.8851 1.90533 72.0627 2.06674C72.2403 2.22814 72.331 2.52843 72.331 2.96385C72.331 3.38426 72.2403 3.68079 72.0627 3.8497C71.8851 4.02237 71.6735 4.10495 71.4279 4.10495Z" fill="white" stroke="white" stroke-width="0.3"/>
<path d="M75.2822 16.976V16.7733H75.4447C76.072 16.7733 76.5103 16.6382 76.7559 16.3641C77.0016 16.0939 77.1263 15.6059 77.1263 14.8965V8.09872C77.1263 7.40805 77.0091 6.92759 76.7786 6.66484C76.5443 6.39833 76.1173 6.26696 75.4863 6.26696H75.3843V6.06426H79.0345V7.9786H79.0761C79.2537 7.3555 79.5182 6.89005 79.8659 6.58226C80.2135 6.27822 80.5914 6.07928 80.9919 5.99294C81.3963 5.90661 81.7666 5.86157 82.1104 5.86157C83.3272 5.86157 84.2341 6.17687 84.8274 6.80747C85.4206 7.43808 85.7192 8.45531 85.7192 9.85165V14.9002C85.7192 15.6059 85.8287 16.0939 86.0479 16.3679C86.2671 16.6382 86.6714 16.777 87.2571 16.777H87.3591V16.9797H83.792V9.15723C83.792 8.27514 83.6257 7.55444 83.2894 6.99891C82.9531 6.44338 82.3901 6.16561 81.5965 6.16561C80.9541 6.16561 80.4478 6.33452 80.0812 6.6761C79.7109 7.01392 79.4502 7.4531 79.2915 7.98986C79.1328 8.52663 79.0572 9.08592 79.0572 9.67148V14.9002C79.0572 15.6059 79.1743 16.0939 79.4049 16.3679C79.6354 16.6382 80.0661 16.777 80.6972 16.777H80.7992V16.9797H75.2822V16.976Z" fill="white" stroke="white" stroke-width="0.3"/>
<path d="M93.9153 17.1789C92.3849 17.1789 91.1908 16.6909 90.3368 15.7112C89.4828 14.7353 89.0558 13.3615 89.0558 11.5973C89.0558 9.69795 89.4488 8.26407 90.2348 7.29939C91.0207 6.33471 92.143 5.85425 93.6054 5.85425C94.9318 5.85425 95.9747 6.26339 96.7305 7.07793C97.49 7.89246 97.8679 9.10863 97.8679 10.7227V11.2107H91.0396C91.0548 13.2864 91.2815 14.7691 91.7274 15.6512C92.1695 16.5333 92.9215 16.9762 93.972 16.9762C94.7391 16.9762 95.3814 16.766 95.9105 16.3456C96.4357 15.9252 96.7758 15.3021 96.9269 14.4726C97.0894 14.4988 97.2141 14.5814 97.2973 14.7165C97.3804 14.8517 97.422 14.9943 97.422 15.1444C97.422 15.4147 97.2935 15.7112 97.0328 16.0303C96.772 16.3494 96.3866 16.6196 95.8727 16.8448C95.3588 17.0663 94.7088 17.1789 93.9153 17.1789ZM91.0472 11.0117H95.8047C95.8047 9.2325 95.6346 7.96378 95.2907 7.20555C94.9507 6.44732 94.3763 6.06445 93.5676 6.06445C92.7325 6.06445 92.1241 6.44357 91.7311 7.20555C91.3419 7.96378 91.1152 9.2325 91.0472 11.0117Z" fill="white" stroke="white" stroke-width="0.3"/>
<path d="M103.982 16.9762V16.7735H104.25C104.851 16.7735 105.282 16.6496 105.543 16.4057C105.803 16.1617 105.932 15.76 105.932 15.2045V7.85492C105.932 7.28438 105.803 6.87898 105.543 6.63125C105.282 6.38726 104.851 6.26339 104.25 6.26339H104.19V6.0607H107.84V8.09515H107.882C107.976 7.74232 108.12 7.39698 108.312 7.05541C108.505 6.71758 108.792 6.43231 109.174 6.19958C109.556 5.97061 110.081 5.85425 110.753 5.85425C111.422 5.85425 111.944 5.98563 112.31 6.25213C112.681 6.51864 112.862 6.88649 112.862 7.3632C112.862 7.77235 112.715 8.11017 112.42 8.38043C112.125 8.65069 111.638 8.78957 110.954 8.78957C110.954 7.94876 110.81 7.36695 110.523 7.0479C110.236 6.72884 109.915 6.57119 109.559 6.57119C109.163 6.57119 108.849 6.71007 108.615 6.98784C108.38 7.26561 108.21 7.62595 108.101 8.06888C107.991 8.5118 107.923 8.96599 107.897 9.43144C107.87 9.90064 107.855 10.3323 107.855 10.7227V15.0994C107.855 15.6962 107.984 16.1241 108.244 16.3831C108.505 16.6421 108.936 16.7698 109.537 16.7698H109.805V16.9725H103.982V16.9762Z" fill="white" stroke="white" stroke-width="0.3"/>
<path d="M119.048 17.1788C117.57 17.1788 116.41 16.7096 115.564 15.7749C114.717 14.8365 114.294 13.4139 114.294 11.4996C114.294 9.60025 114.702 8.18514 115.515 7.25425C116.327 6.32335 117.525 5.85791 119.112 5.85791C120.59 5.85791 121.75 6.32335 122.596 7.25425C123.442 8.18514 123.866 9.60025 123.866 11.4996C123.866 13.4139 123.454 14.8403 122.638 15.7749C121.814 16.7133 120.62 17.1788 119.048 17.1788ZM119.089 16.9761C120.087 16.9761 120.801 16.5557 121.232 15.7149C121.663 14.8741 121.878 13.4665 121.878 11.4996C121.878 9.54395 121.663 8.15136 121.232 7.31431C120.801 6.481 120.079 6.0606 119.07 6.0606C118.058 6.0606 117.34 6.47725 116.917 7.31431C116.493 8.14761 116.282 9.54395 116.282 11.4996C116.282 13.4665 116.497 14.8741 116.928 15.7149C117.355 16.5557 118.077 16.9761 119.089 16.9761Z" fill="white" stroke="white" stroke-width="0.3"/>
<path d="M125.362 21.8634V21.6607C126.318 21.6607 127.093 21.5894 127.69 21.4467C128.283 21.3041 128.755 21.0789 129.103 20.7749C129.451 20.4708 129.746 20.0767 129.984 19.5925C130.222 19.112 130.471 18.5377 130.732 17.8733L126.243 7.38572C126.065 6.9503 125.891 6.65752 125.721 6.49987C125.551 6.34222 125.336 6.26715 125.075 6.26715H124.663V6.06445H129.583V6.26715H129.523C129.141 6.26715 128.835 6.32345 128.612 6.43981C128.385 6.55618 128.272 6.76262 128.272 7.05916C128.272 7.29188 128.355 7.60343 128.517 7.99756L130.282 12.2542C130.486 12.7571 130.705 13.3127 130.94 13.9245C131.17 14.5364 131.363 15.0731 131.514 15.5348C131.692 15.0056 131.862 14.5026 132.028 14.0296C132.19 13.5529 132.33 13.14 132.44 12.7872L133.936 8.12518C134.061 7.75733 134.121 7.45329 134.121 7.2093C134.121 6.5862 133.672 6.2709 132.769 6.2709H131.907V6.06821H136.169V6.2709H136.007C135.501 6.2709 135.134 6.37225 134.911 6.57494C134.684 6.77764 134.461 7.20555 134.246 7.85868L131.253 17.0625C130.94 18.0385 130.63 18.8417 130.331 19.4648C130.029 20.0879 129.681 20.5759 129.285 20.9325C128.888 21.2853 128.393 21.5293 127.799 21.6645C127.206 21.7996 126.458 21.8672 125.555 21.8672H125.362V21.8634Z" fill="white" stroke="white" stroke-width="0.3"/>
<path d="M140.572 17.1788C139.517 17.1788 138.694 16.9123 138.093 16.3755C137.492 15.8387 137.19 15.103 137.19 14.1646C137.19 13.1211 137.575 12.3404 138.35 11.8224C139.121 11.3081 140.292 11.0229 141.864 10.9665L143.564 10.9065V9.38254C143.564 8.62056 143.523 7.99746 143.44 7.50949C143.357 7.02153 143.179 6.65743 142.907 6.42095C142.635 6.18447 142.215 6.06435 141.656 6.06435C140.863 6.06435 140.356 6.30834 140.129 6.79631C139.903 7.28428 139.789 8.05377 139.789 9.09727C139.215 9.09727 138.78 9.00343 138.489 8.812C138.195 8.62056 138.047 8.30901 138.047 7.8736C138.047 7.38563 138.214 6.99525 138.55 6.70247C138.886 6.40969 139.328 6.19573 139.884 6.0606C140.436 5.92547 141.055 5.85791 141.739 5.85791C142.998 5.85791 143.935 6.12441 144.558 6.65367C145.182 7.18293 145.492 8.0913 145.492 9.38254V15.4709C145.492 15.9588 145.586 16.3004 145.779 16.4881C145.971 16.6795 146.296 16.7734 146.761 16.7734H146.822V16.9761H143.727V14.8365H143.685C143.466 15.6511 143.081 16.2441 142.525 16.6195C141.977 16.9948 141.324 17.1788 140.572 17.1788ZM140.983 16.8935C141.49 16.8935 141.936 16.7659 142.325 16.5069C142.714 16.2479 143.02 15.9025 143.236 15.4671C143.455 15.0317 143.564 14.5663 143.564 14.0633V11.1317L142.253 11.1918C141.093 11.2443 140.288 11.5108 139.846 11.9875C139.4 12.4642 139.181 13.2638 139.181 14.3898C139.177 16.0602 139.778 16.8935 140.983 16.8935Z" fill="white" stroke="white" stroke-width="0.3"/>
<path d="M147.974 16.9761V16.7734H148.242C148.843 16.7734 149.273 16.6496 149.534 16.4056C149.795 16.1616 149.923 15.76 149.923 15.2044V3.29047C149.923 2.71992 149.795 2.31453 149.534 2.0668C149.273 1.82281 148.843 1.69894 148.242 1.69894H147.974V1.5H151.847V15.1031C151.847 15.6999 151.975 16.1278 152.236 16.3868C152.497 16.6458 152.928 16.7734 153.528 16.7734H153.797V16.9761H147.974Z" fill="white" stroke="white" stroke-width="0.3"/>
<path d="M160.047 17.1789C158.517 17.1789 157.323 16.6909 156.469 15.7112C155.615 14.7353 155.188 13.3615 155.188 11.5973C155.188 9.69795 155.581 8.26407 156.367 7.29939C157.153 6.33471 158.275 5.85425 159.737 5.85425C161.064 5.85425 162.107 6.26339 162.862 7.07793C163.622 7.89246 164 9.10863 164 10.7227V11.2107H157.172C157.187 13.2864 157.413 14.7691 157.859 15.6512C158.301 16.5333 159.053 16.9762 160.104 16.9762C160.871 16.9762 161.513 16.766 162.042 16.3456C162.568 15.9252 162.908 15.3021 163.059 14.4726C163.221 14.4988 163.346 14.5814 163.429 14.7165C163.512 14.8517 163.554 14.9943 163.554 15.1444C163.554 15.4147 163.425 15.7112 163.165 16.0303C162.904 16.3494 162.519 16.6196 162.005 16.8448C161.491 17.0663 160.841 17.1789 160.047 17.1789ZM157.175 11.0117H161.933C161.933 9.2325 161.763 7.96378 161.419 7.20555C161.079 6.44732 160.504 6.06445 159.696 6.06445C158.861 6.06445 158.252 6.44357 157.859 7.20555C157.474 7.96378 157.247 9.2325 157.175 11.0117Z" fill="white" stroke="white" stroke-width="0.3"/>
<path d="M44.4287 24.5471C45.6039 24.5471 46.4806 24.8474 47.0512 25.4442C47.6255 26.0411 47.9127 26.987 47.9127 28.2745V35.564H47.0323L46.8055 33.7322H46.764C46.3937 34.344 45.944 34.8358 45.4112 35.2074C44.8784 35.579 44.134 35.7667 43.1779 35.7667C42.2068 35.7667 41.4359 35.5077 40.8616 34.9934C40.2872 34.4792 40 33.7247 40 32.7337C40 31.6602 40.4119 30.8382 41.2394 30.2714C42.067 29.7008 43.28 29.3818 44.8784 29.3142L46.7451 29.2129V28.4584C46.7451 27.3849 46.5486 26.6304 46.1518 26.1875C45.7551 25.7483 45.1693 25.5268 44.3871 25.5268C43.8695 25.5268 43.3631 25.5981 42.8719 25.7408C42.3806 25.8834 41.8932 26.0899 41.417 26.3639L41.0278 25.4255C41.5191 25.1665 42.0519 24.9563 42.6262 24.7949C43.2006 24.6335 43.8014 24.5471 44.4287 24.5471ZM46.7451 30.1062L45.0446 30.1888C43.7599 30.2413 42.8001 30.4778 42.1652 30.8907C41.5304 31.3036 41.213 31.9267 41.213 32.7525C41.213 33.4169 41.4095 33.9236 41.7987 34.269C42.1879 34.6143 42.7245 34.787 43.4084 34.787C44.4589 34.787 45.2789 34.4679 45.8684 33.8298C46.4541 33.1917 46.7489 32.2946 46.7489 31.1422V30.1062H46.7451Z" fill="white" stroke="white" stroke-width="0.3"/>
<path d="M55.2927 35.7666C53.7887 35.7666 52.6287 35.2824 51.8087 34.3102C50.9887 33.338 50.5768 31.9717 50.5768 30.2075C50.5768 28.9988 50.7846 27.9703 51.2003 27.122C51.6159 26.2737 52.1941 25.6281 52.9309 25.1889C53.6678 24.746 54.5294 24.5283 55.5156 24.5283C56.0069 24.5283 56.4717 24.5771 56.91 24.6709C57.3483 24.7648 57.7375 24.8961 58.0776 25.0575L57.7489 26.0748C57.0233 25.7369 56.2676 25.5643 55.4741 25.5643C54.2837 25.5643 53.3731 25.9772 52.7382 26.8067C52.1034 27.6363 51.786 28.7624 51.786 30.1887C51.786 31.5475 52.0694 32.6473 52.6362 33.4881C53.203 34.329 54.0797 34.7494 55.27 34.7494C55.7877 34.7494 56.2714 34.6968 56.7135 34.588C57.1556 34.4791 57.5637 34.3365 57.934 34.16V35.1998C57.6053 35.3762 57.2236 35.5151 56.7853 35.6164C56.3545 35.7178 55.8557 35.7666 55.2927 35.7666Z" fill="white" stroke="white" stroke-width="0.3"/>
<path d="M64.0065 24.5471C65.1817 24.5471 66.0545 24.8474 66.6289 25.4442C67.2033 26.0411 67.4905 26.987 67.4905 28.2745V35.564H66.61L66.3833 33.7322H66.3417C65.9714 34.344 65.5217 34.8358 64.9889 35.2074C64.4561 35.579 63.7117 35.7667 62.7557 35.7667C61.7845 35.7667 61.0137 35.5077 60.4393 34.9934C59.8649 34.4792 59.5778 33.7247 59.5778 32.7337C59.5778 31.6602 59.9896 30.8382 60.8172 30.2714C61.6447 29.7008 62.8577 29.3818 64.4561 29.3142L66.3228 29.2129V28.4584C66.3228 27.3849 66.1263 26.6304 65.7296 26.1875C65.3328 25.7483 64.7471 25.5268 63.9649 25.5268C63.4472 25.5268 62.9409 25.5981 62.4496 25.7408C61.9584 25.8834 61.4709 26.0899 60.9948 26.3639L60.6056 25.4255C61.0968 25.1665 61.6296 24.9563 62.204 24.7949C62.7784 24.6297 63.3792 24.5471 64.0065 24.5471ZM66.3228 30.1062L64.6224 30.1888C63.3376 30.2413 62.3778 30.4778 61.743 30.8907C61.1082 31.3036 60.7907 31.9267 60.7907 32.7525C60.7907 33.4169 60.9872 33.9236 61.3764 34.269C61.7657 34.6143 62.3022 34.787 62.9862 34.787C64.0367 34.787 64.8567 34.4679 65.4462 33.8298C66.0319 33.1917 66.3266 32.2946 66.3266 31.1422V30.1062H66.3228Z" fill="white" stroke="white" stroke-width="0.3"/>
<path d="M74.4208 35.7669C73.0529 35.7669 72.0024 35.3014 71.2655 34.3705C70.5286 33.4397 70.1583 32.0733 70.1583 30.2679C70.1583 28.3948 70.5438 26.9684 71.3184 25.9925C72.0893 25.0166 73.1587 24.5248 74.5266 24.5248C75.373 24.5248 76.0645 24.72 76.5973 25.1142C77.1301 25.5083 77.5345 26.0038 77.8065 26.6006H77.8897C77.8632 26.274 77.8405 25.9137 77.8292 25.5195C77.8141 25.1254 77.8103 24.7801 77.8103 24.4798V20.0806H78.978V35.5567H78.0333L77.8481 33.6836H77.8028C77.5307 34.2542 77.1226 34.7422 76.5822 35.1513C76.0419 35.5642 75.3239 35.7669 74.4208 35.7669ZM74.6059 34.7722C75.7811 34.7722 76.6087 34.3931 77.0848 33.6311C77.5647 32.8691 77.8028 31.7768 77.8028 30.3542V30.1515C77.8028 28.6576 77.5609 27.5127 77.0735 26.7207C76.5898 25.9249 75.7773 25.5308 74.6437 25.5308C73.5781 25.5308 72.7657 25.9399 72.2026 26.762C71.6434 27.584 71.3638 28.7552 71.3638 30.2754C71.3638 31.7543 71.632 32.8766 72.1648 33.6348C72.6977 34.3893 73.5101 34.7722 74.6059 34.7722Z" fill="white" stroke="white" stroke-width="0.3"/>
<path d="M86.2066 24.5283C87.0795 24.5283 87.8201 24.7422 88.4209 25.1702C89.0218 25.5981 89.4714 26.1836 89.7737 26.9306C90.076 27.6776 90.2234 28.5334 90.2234 29.4981V30.3126H82.9266C82.9417 31.739 83.2591 32.835 83.8789 33.6008C84.5024 34.3665 85.3941 34.7531 86.5542 34.7531C87.1966 34.7531 87.7559 34.7006 88.2358 34.5917C88.7157 34.4829 89.2334 34.2914 89.7926 34.0212V35.0797C89.2863 35.3237 88.7799 35.5001 88.2773 35.6089C87.771 35.7178 87.1853 35.7703 86.5127 35.7703C84.9671 35.7703 83.7844 35.2749 82.9568 34.2839C82.1293 33.293 81.7174 31.9417 81.7174 30.23C81.7174 29.1302 81.895 28.1505 82.2502 27.2872C82.6054 26.4239 83.1155 25.7482 83.7768 25.2602C84.4419 24.7723 85.2506 24.5283 86.2066 24.5283ZM86.2066 25.5042C85.277 25.5042 84.525 25.8383 83.9507 26.5027C83.3763 27.1671 83.04 28.113 82.9455 29.3329H89.0142C88.9991 28.1918 88.7686 27.2684 88.3189 26.5627C87.8692 25.8571 87.1626 25.5042 86.2066 25.5042Z" fill="white" stroke="white" stroke-width="0.3"/>
<path d="M103.755 24.5285C104.779 24.5285 105.577 24.8325 106.143 25.4443C106.71 26.0562 106.994 27.0209 106.994 28.3346V35.5641H105.845V28.3947C105.845 27.4187 105.645 26.6981 105.24 26.2364C104.836 25.7747 104.281 25.5457 103.57 25.5457C102.599 25.5457 101.855 25.8497 101.337 26.4503C100.819 27.0546 100.558 27.9893 100.558 29.2505V35.5641H99.4097V28.3947C99.4097 27.4187 99.2056 26.6981 98.7938 26.2364C98.3819 25.7747 97.8226 25.5457 97.1122 25.5457C96.1562 25.5457 95.4193 25.861 94.8979 26.4916C94.3802 27.1222 94.1194 28.0981 94.1194 29.4119V35.5603H92.9707V24.7274H93.8927L94.0779 26.4391H94.161C94.4217 25.9098 94.811 25.4594 95.3286 25.084C95.8463 24.7124 96.5038 24.5247 97.2974 24.5247C98.0493 24.5247 98.6804 24.6936 99.1943 25.0352C99.7082 25.373 100.071 25.8835 100.29 26.5629H100.373C100.672 25.9098 101.114 25.4106 101.696 25.0577C102.278 24.7049 102.962 24.5285 103.755 24.5285Z" fill="white" stroke="white" stroke-width="0.3"/>
<path d="M108.573 24.731H109.843L112.242 31.4725C112.461 32.0693 112.647 32.6023 112.794 33.0715C112.945 33.5407 113.062 33.9574 113.142 34.3252H113.202C113.285 34.0137 113.399 33.612 113.55 33.1241C113.701 32.6361 113.878 32.0918 114.083 31.495L116.44 24.7347H117.71L113.096 37.5045C112.756 38.4542 112.337 39.1899 111.846 39.7154C111.354 40.2371 110.697 40.4999 109.877 40.4999C109.616 40.4999 109.389 40.4811 109.189 40.4398C108.993 40.3985 108.804 40.3497 108.626 40.2972V39.3213C108.955 39.4414 109.321 39.5052 109.733 39.5052C110.281 39.5052 110.719 39.3288 111.056 38.9759C111.392 38.6231 111.694 38.0863 111.966 37.3656L112.601 35.5339L108.573 24.731Z" fill="white" stroke="white" stroke-width="0.3"/>
</svg>
