<svg width="15" height="13" viewBox="0 0 15 13" fill="none" xmlns="http://www.w3.org/2000/svg">
<path d="M9.94378 6.44001C9.86586 4.96668 8.7042 4.08001 7.3017 4.08001H7.24503C5.62295 4.08001 4.73045 5.28001 4.73045 6.64001C4.73045 8.16668 5.8142 9.13334 7.23795 9.13334C8.8317 9.13334 9.87295 8.03334 9.95086 6.74001M7.25211 2.76001C8.33586 2.76001 9.35586 3.21335 10.0996 3.92001C10.0996 3.58001 10.3334 3.32668 10.6875 3.32668H10.7654C11.2896 3.32668 11.3959 3.79334 11.3959 3.94001V9.20668C11.3675 9.55334 11.7784 9.72668 12.0121 9.50001C12.9117 8.64001 13.9813 5.04001 11.4525 2.96001C9.09378 1.01334 5.92753 1.33334 4.2417 2.42668C2.4567 3.58668 1.3092 6.16668 2.42128 8.57335C3.63253 11.2067 7.10336 11.9933 9.16461 11.2067C10.2129 10.8133 10.6875 12.14 9.62503 12.5733C7.96753 13.2333 3.41295 13.1667 1.28086 9.69335C-0.157054 7.34668 -0.0862209 3.22001 3.7317 1.08001C6.65711 -0.553322 10.5034 -0.0999885 12.8125 2.16668C15.2563 4.56668 15.1146 9.03335 12.7417 10.7733C11.6721 11.56 10.0784 10.7933 10.0925 9.64001L10.0784 9.26668C9.70838 9.61781 9.2681 9.89641 8.78298 10.0864C8.29786 10.2763 7.77754 10.3739 7.25211 10.3733C5.11295 10.3733 3.25003 8.60001 3.25003 6.58668C3.25003 4.55335 5.11295 2.76001 7.25211 2.76001Z" fill="black"/>
</svg>
