<svg width="12" height="13" viewBox="0 0 12 13" fill="none" xmlns="http://www.w3.org/2000/svg">
<path d="M5.96008 0.5C5.25941 0.5093 4.59066 0.7945 4.09892 1.29372C3.60719 1.79295 3.33212 2.46593 3.33341 3.16667C3.29341 4.26 3.20675 5.48 2.68675 6.22667C4.47341 7.31333 6.00008 7.16667 6.00008 7.16667C6.00008 7.16667 7.52675 7.31333 9.31341 6.22667C8.74675 5.31333 8.62675 4.19333 8.66675 3.16667C8.66675 1.69333 7.47341 0.5 6.00008 0.5H5.96008ZM3.90675 7.38C2.00008 7.78667 0.666748 8.73333 0.666748 9.83333V12.5H6.00008L4.00008 9.83333H2.33341M6.00008 12.5L7.18675 7.70667C7.18675 7.70667 6.66675 7.83333 6.00008 7.83333C5.33342 7.83333 4.81342 7.70667 4.81342 7.70667M6.00008 12.5H11.3334V9.83333C11.3334 8.73333 10.0001 7.78667 8.09342 7.38L9.66675 9.83333H8.00008L6.00008 12.5Z" fill="black"/>
</svg>
