<svg width="16" height="14" viewBox="0 0 16 14" fill="none" xmlns="http://www.w3.org/2000/svg">
<path d="M6.86719 8.96915H8.20052V10.3025H6.86719V8.96915ZM8.86719 11.3025V11.0358H3.13385L7.53385 3.50248L10.2739 8.26248C10.6139 7.96915 11.0005 7.73581 11.4272 7.57581L7.53385 0.835815L0.867188 12.3691H9.01385C8.92052 12.0291 8.86719 11.6758 8.86719 11.3025ZM8.20052 5.63582H6.86719V8.30248H8.20052V5.63582ZM14.2805 8.94248L12.8672 10.3625L11.4539 8.94248L10.5139 9.88915L11.9272 11.3025L10.5139 12.7158L11.4539 13.6625L12.8672 12.2425L14.2805 13.6625L15.2272 12.7158L13.8072 11.3025L15.2272 9.88915L14.2805 8.94248Z" fill="#161C3D"/>
</svg>
