<svg width="15" height="17" viewBox="0 0 15 17" fill="none" xmlns="http://www.w3.org/2000/svg">
<path d="M2.16683 3.16667V15.1667H12.8335V16.5H2.16683C1.4335 16.5 0.833496 15.9 0.833496 15.1667V3.16667H2.16683ZM9.50016 5.16667H13.1668L9.50016 1.5V5.16667ZM4.8335 0.5H10.1668L14.1668 4.5V12.5C14.1668 13.24 13.5735 13.8333 12.8335 13.8333H4.8335C4.47987 13.8333 4.14074 13.6929 3.89069 13.4428C3.64064 13.1928 3.50016 12.8536 3.50016 12.5V1.83333C3.50016 1.09333 4.0935 0.5 4.8335 0.5ZM10.8335 11.1667V9.83333H4.8335V11.1667H10.8335ZM12.8335 8.5V7.16667H4.8335V8.5H12.8335Z" fill="#161C3D"/>
</svg>
