<svg width="40" height="41" viewBox="0 0 40 41" fill="none" xmlns="http://www.w3.org/2000/svg">
<path d="M20 0.00463867C17.3736 0.00463867 14.7728 0.521954 12.3463 1.52705C9.91982 2.53214 7.71504 4.00533 5.85786 5.8625C2.10714 9.61323 0 14.7003 0 20.0046C0 25.309 2.10714 30.396 5.85786 34.1468C7.71504 36.004 9.91982 37.4771 12.3463 38.4822C14.7728 39.4873 17.3736 40.0046 20 40.0046C25.3043 40.0046 30.3914 37.8975 34.1421 34.1468C37.8929 30.396 40 25.309 40 20.0046C40 17.3782 39.4827 14.7775 38.4776 12.351C37.4725 9.92446 35.9993 7.71968 34.1421 5.8625C32.285 4.00533 30.0802 2.53214 27.6537 1.52705C25.2272 0.521954 22.6264 0.00463867 20 0.00463867ZM30 32.0046H10V28.0046H30V32.0046ZM16.6 24.0046L10 17.4046L12.8 14.6046L16.6 18.4046L27.2 7.80464L30 10.6046L16.6 24.0046Z" fill="#4FD681"/>
</svg>
