<svg width="16" height="18" viewBox="0 0 16 18" fill="none" xmlns="http://www.w3.org/2000/svg">
<path d="M15.5 14.3334V15.1667H0.5V14.3334L2.16667 12.6667V7.66675C2.16667 5.08341 3.85833 2.80841 6.33333 2.07508V1.83341C6.33333 1.39139 6.50893 0.967464 6.82149 0.654903C7.13405 0.342343 7.55797 0.166748 8 0.166748C8.44203 0.166748 8.86595 0.342343 9.17851 0.654903C9.49107 0.967464 9.66667 1.39139 9.66667 1.83341V2.07508C12.1417 2.80841 13.8333 5.08341 13.8333 7.66675V12.6667L15.5 14.3334ZM9.66667 16.0001C9.66667 16.4421 9.49107 16.866 9.17851 17.1786C8.86595 17.4912 8.44203 17.6667 8 17.6667C7.55797 17.6667 7.13405 17.4912 6.82149 17.1786C6.50893 16.866 6.33333 16.4421 6.33333 16.0001" fill="white"/>
</svg>
