<svg width="17" height="15" viewBox="0 0 17 15" fill="none" xmlns="http://www.w3.org/2000/svg">
<path d="M15.1667 2.16659H9.83333L8.5 0.833252H4.5C4.14638 0.833252 3.80724 0.973728 3.55719 1.22378C3.30714 1.47382 3.16667 1.81296 3.16667 2.16659V10.1666C3.16667 10.5202 3.30714 10.8593 3.55719 11.1094C3.80724 11.3594 4.14638 11.4999 4.5 11.4999H15.1667C15.5203 11.4999 15.8594 11.3594 16.1095 11.1094C16.3595 10.8593 16.5 10.5202 16.5 10.1666V3.49992C16.5 3.1463 16.3595 2.80716 16.1095 2.55711C15.8594 2.30706 15.5203 2.16659 15.1667 2.16659ZM1.83333 3.49992H0.5V12.8333C0.5 13.1869 0.640476 13.526 0.890524 13.7761C1.14057 14.0261 1.47971 14.1666 1.83333 14.1666H13.8333V12.8333H1.83333V3.49992Z" fill="white"/>
</svg>
