<svg width="61" height="61" viewBox="0 0 61 61" fill="none" xmlns="http://www.w3.org/2000/svg">
<g clip-path="url(#clip0_371_5343)">
<rect width="60.5427" height="60.5427" rx="30.2714" fill="#E5E5EF"/>
<path d="M30.2716 15.5562C33.3937 15.5562 36.3881 16.7964 38.5958 19.0041C40.8035 21.2119 42.0438 24.2062 42.0438 27.3284C42.0438 30.4505 40.8035 33.4448 38.5958 35.6526C36.3881 37.8603 33.3937 39.1005 30.2716 39.1005C27.1494 39.1005 24.1551 37.8603 21.9474 35.6526C19.7397 33.4448 18.4994 30.4505 18.4994 27.3284C18.4994 24.2062 19.7397 21.2119 21.9474 19.0041C24.1551 16.7964 27.1494 15.5562 30.2716 15.5562ZM30.2716 44.9866C43.2798 44.9866 53.816 50.2547 53.816 56.7588V62.6449H6.72717V56.7588C6.72717 50.2547 17.2633 44.9866 30.2716 44.9866Z" fill="#171C3B"/>
</g>
<defs>
<clipPath id="clip0_371_5343">
<rect width="60.5427" height="60.5427" rx="30.2714" fill="white"/>
</clipPath>
</defs>
</svg>
